<svg id="Layer_1" data-name="Layer 1" xmlns="http://www.w3.org/2000/svg" xmlns:xlink="http://www.w3.org/1999/xlink" viewBox="0 0 64 64"><defs><style>.cls-1{fill:url(#linear-gradient);}.cls-2{fill:url(#linear-gradient-3);}.cls-3{fill:url(#linear-gradient-5);}.cls-4{fill:url(#linear-gradient-7);}.cls-5{fill:url(#linear-gradient-10);}.cls-6{fill:url(#linear-gradient-13);}.cls-7{fill:url(#linear-gradient-14);}.cls-8{fill:url(#linear-gradient-15);}.cls-9{fill:url(#linear-gradient-16);}.cls-10{fill:url(#linear-gradient-17);}.cls-11{fill:url(#linear-gradient-18);}.cls-12{fill:url(#linear-gradient-20);}.cls-13{fill:url(#linear-gradient-21);}.cls-14{fill:url(#linear-gradient-22);}.cls-15{fill:url(#linear-gradient-24);}.cls-16{fill:url(#linear-gradient-25);}.cls-17{fill:url(#linear-gradient-26);}.cls-18{fill:url(#linear-gradient-28);}.cls-19{fill:url(#linear-gradient-29);}.cls-20{fill:url(#linear-gradient-30);}.cls-21{fill:url(#linear-gradient-32);}.cls-22{fill:url(#linear-gradient-33);}.cls-23{fill:url(#linear-gradient-34);}.cls-24{fill:url(#linear-gradient-36);}.cls-25{fill:url(#linear-gradient-37);}.cls-26{fill:url(#linear-gradient-38);}</style><linearGradient id="linear-gradient" x1="23.9" y1="-6.32" x2="71.4" y2="47.01" gradientUnits="userSpaceOnUse"><stop offset="0" stop-color="#15b3ff" id="id_140"></stop><stop offset="1" stop-color="#e200e9" id="id_141"></stop></linearGradient><linearGradient id="linear-gradient-3" x1="17.2" y1="-0.35" x2="64.7" y2="52.98" xlink:href="#linear-gradient"></linearGradient><linearGradient id="linear-gradient-5" x1="12.73" y1="3.63" x2="60.23" y2="56.96" xlink:href="#linear-gradient"></linearGradient><linearGradient id="linear-gradient-7" x1="8.26" y1="7.61" x2="55.76" y2="60.94" xlink:href="#linear-gradient"></linearGradient><linearGradient id="linear-gradient-10" x1="14.81" y1="1.78" x2="62.31" y2="55.11" xlink:href="#linear-gradient"></linearGradient><linearGradient id="linear-gradient-13" x1="10.47" y1="5.64" x2="57.97" y2="58.97" xlink:href="#linear-gradient"></linearGradient><linearGradient id="linear-gradient-14" x1="5.51" y1="10.06" x2="53.01" y2="63.39" xlink:href="#linear-gradient"></linearGradient><linearGradient id="linear-gradient-15" x1="0.54" y1="14.48" x2="48.04" y2="67.82" xlink:href="#linear-gradient"></linearGradient><linearGradient id="linear-gradient-16" x1="-5.87" y1="20.19" x2="41.63" y2="73.52" xlink:href="#linear-gradient"></linearGradient><linearGradient id="linear-gradient-17" x1="-10.83" y1="24.61" x2="36.67" y2="77.94" xlink:href="#linear-gradient"></linearGradient><linearGradient id="linear-gradient-18" x1="1.73" y1="13.42" x2="49.23" y2="66.76" xlink:href="#linear-gradient"></linearGradient><linearGradient id="linear-gradient-20" x1="1.32" y1="13.78" x2="48.82" y2="67.12" xlink:href="#linear-gradient"></linearGradient><linearGradient id="linear-gradient-21" x1="-1.77" y1="16.54" x2="45.73" y2="69.87" xlink:href="#linear-gradient"></linearGradient><linearGradient id="linear-gradient-22" x1="1.87" y1="13.3" x2="49.37" y2="66.63" xlink:href="#linear-gradient"></linearGradient><linearGradient id="linear-gradient-24" x1="6.29" y1="9.36" x2="53.79" y2="62.69" xlink:href="#linear-gradient"></linearGradient><linearGradient id="linear-gradient-25" x1="3.2" y1="12.12" x2="50.7" y2="65.45" xlink:href="#linear-gradient"></linearGradient><linearGradient id="linear-gradient-26" x1="6.84" y1="8.87" x2="54.34" y2="62.21" xlink:href="#linear-gradient"></linearGradient><linearGradient id="linear-gradient-28" x1="11.26" y1="4.94" x2="58.76" y2="58.27" xlink:href="#linear-gradient"></linearGradient><linearGradient id="linear-gradient-29" x1="8.16" y1="7.69" x2="55.66" y2="61.03" xlink:href="#linear-gradient"></linearGradient><linearGradient id="linear-gradient-30" x1="11.81" y1="4.45" x2="59.31" y2="57.78" xlink:href="#linear-gradient"></linearGradient><linearGradient id="linear-gradient-32" x1="-7.61" y1="21.74" x2="39.89" y2="75.08" xlink:href="#linear-gradient"></linearGradient><linearGradient id="linear-gradient-33" x1="-6.74" y1="20.96" x2="40.76" y2="74.3" xlink:href="#linear-gradient"></linearGradient><linearGradient id="linear-gradient-34" x1="-5.93" y1="20.24" x2="41.57" y2="73.58" xlink:href="#linear-gradient"></linearGradient><linearGradient id="linear-gradient-36" x1="-12.58" y1="26.17" x2="34.92" y2="79.5" xlink:href="#linear-gradient"></linearGradient><linearGradient id="linear-gradient-37" x1="-11.7" y1="25.39" x2="35.8" y2="78.72" xlink:href="#linear-gradient"></linearGradient><linearGradient id="linear-gradient-38" x1="-10.9" y1="24.67" x2="36.6" y2="78" xlink:href="#linear-gradient"></linearGradient></defs><title>notes</title><rect class="cls-1" x="39" y="17.5" width="14" height="2" id="id_101"></rect><rect class="cls-1" x="39" y="17.5" width="14" height="2" id="id_102"></rect><rect class="cls-2" x="31" y="26.5" width="22" height="2" id="id_103"></rect><rect class="cls-2" x="31" y="26.5" width="22" height="2" id="id_104"></rect><rect class="cls-3" x="31" y="35.5" width="22" height="2" id="id_105"></rect><rect class="cls-3" x="31" y="35.5" width="22" height="2" id="id_106"></rect><rect class="cls-4" x="31" y="44.5" width="22" height="2" id="id_107"></rect><rect class="cls-4" x="31" y="44.5" width="22" height="2" id="id_108"></rect><rect class="cls-2" x="31" y="26.5" width="22" height="2" id="id_109"></rect><path class="cls-5" d="M39,17.5v2H53v-2Zm0,0v2H53v-2Zm0,0v2H53v-2Zm-8,18v2H53v-2Zm0,9v2H53v-2Zm8-27v2H53v-2Zm-8,27v2H53v-2Zm0-9v2H53v-2Zm8-18v2H53v-2Zm-8,18v2H53v-2Zm0,9v2H53v-2Zm8-27v2H53v-2Zm-8,18v2H53v-2Zm0,9v2H53v-2Zm8-27v2H53v-2Zm-8,18v2H53v-2Zm0,9v2H53v-2Zm8-27v2H53v-2Zm-8,18v2H53v-2Zm0,9v2H53v-2Zm8-27v2H53v-2Zm-8,18v2H53v-2Zm0,9v2H53v-2Zm8-27v2H53v-2Zm-8,18v2H53v-2Zm0,9v2H53v-2Zm8-27v2H53v-2Zm-8,18v2H53v-2Zm0,9v2H53v-2Zm8-27v2H53v-2Zm-8,18v2H53v-2Zm0,9v2H53v-2ZM58,5H25V59H58a1,1,0,0,0,1-1V6A1,1,0,0,0,58,5ZM55,47.5a1,1,0,0,1-1,1H30a1,1,0,0,1-1-1v-4a1,1,0,0,1,1-1H54a1,1,0,0,1,1,1Zm0-9a1,1,0,0,1-1,1H30a1,1,0,0,1-1-1v-4a1,1,0,0,1,1-1H54a1,1,0,0,1,1,1Zm0-9a1,1,0,0,1-1,1H30a1,1,0,0,1-1-1v-4a1,1,0,0,1,1-1H54a1,1,0,0,1,1,1Zm0-9a1,1,0,0,1-1,1H38a1,1,0,0,1-1-1v-4a1,1,0,0,1,1-1H54a1,1,0,0,1,1,1Zm-24,26H53v-2H31Zm0-9H53v-2H31Zm8-18H53v-2H39Zm-8,25v2H53v-2Zm0-9v2H53v-2Zm8-18v2H53v-2Zm-8,27v2H53v-2Zm0-9v2H53v-2Zm8-18v2H53v-2Zm-8,27v2H53v-2Zm0-9v2H53v-2Zm8-18v2H53v-2Zm-8,27v2H53v-2Zm0-9v2H53v-2Zm8-18v2H53v-2Zm-8,27v2H53v-2Zm0-9v2H53v-2Zm8-18v2H53v-2Zm-8,27v2H53v-2Zm0-9v2H53v-2Zm8-18v2H53v-2Zm-8,27v2H53v-2Zm0-9v2H53v-2Zm8-18v2H53v-2Zm-8,27v2H53v-2Zm0-9v2H53v-2Zm8-18v2H53v-2Zm-8,18v2H53v-2Zm8-18v2H53v-2Zm-8,18v2H53v-2Zm8-18v2H53v-2Z" id="id_110"></path><rect class="cls-2" x="31" y="26.5" width="22" height="2" id="id_111"></rect><path class="cls-5" d="M39,17.5v2H53v-2Zm0,0v2H53v-2Zm0,0v2H53v-2Zm-8,18v2H53v-2Zm0,9v2H53v-2Zm8-27v2H53v-2Zm-8,18v2H53v-2Zm0,9v2H53v-2Zm8-27v2H53v-2Zm-8,18v2H53v-2Zm0,9v2H53v-2Zm8-27v2H53v-2Zm-8,18v2H53v-2Zm0,9v2H53v-2Zm8-27v2H53v-2Zm-8,18v2H53v-2Zm0,9v2H53v-2Zm8-27v2H53v-2Zm-8,18v2H53v-2Zm0,9v2H53v-2Zm8-27v2H53v-2Zm-8,18v2H53v-2Zm0,9v2H53v-2Zm8-27v2H53v-2Zm-8,18v2H53v-2Zm0,9v2H53v-2Zm8-27v2H53v-2Zm-8,18v2H53v-2Zm0,9v2H53v-2Zm8-27v2H53v-2Zm-8,18v2H53v-2Zm0,9v2H53v-2ZM58,5H25V59H58a1,1,0,0,0,1-1V6A1,1,0,0,0,58,5ZM55,47.5a1,1,0,0,1-1,1H30a1,1,0,0,1-1-1v-4a1,1,0,0,1,1-1H54a1,1,0,0,1,1,1Zm0-9a1,1,0,0,1-1,1H30a1,1,0,0,1-1-1v-4a1,1,0,0,1,1-1H54a1,1,0,0,1,1,1Zm0-9a1,1,0,0,1-1,1H30a1,1,0,0,1-1-1v-4a1,1,0,0,1,1-1H54a1,1,0,0,1,1,1Zm0-9a1,1,0,0,1-1,1H38a1,1,0,0,1-1-1v-4a1,1,0,0,1,1-1H54a1,1,0,0,1,1,1Zm-24,26H53v-2H31Zm0-9H53v-2H31Zm8-18H53v-2H39Zm-8,25v2H53v-2Zm0-9v2H53v-2Zm8-18v2H53v-2Zm-8,27v2H53v-2Zm0-9v2H53v-2Zm8-18v2H53v-2Zm-8,27v2H53v-2Zm0-9v2H53v-2Zm8-18v2H53v-2Zm-8,27v2H53v-2Zm0-9v2H53v-2Zm8-18v2H53v-2Zm-8,27v2H53v-2Zm0-9v2H53v-2Zm8-18v2H53v-2Zm-8,27v2H53v-2Zm0-9v2H53v-2Zm8-18v2H53v-2Zm-8,27v2H53v-2Zm0-9v2H53v-2Zm8-18v2H53v-2Zm-8,27v2H53v-2Zm0-9v2H53v-2Zm8-18v2H53v-2Zm-8,18v2H53v-2Zm8-18v2H53v-2Zm-8,18v2H53v-2Zm8-18v2H53v-2Z" id="id_112"></path><path class="cls-6" d="M13.83,10H14a2,2,0,0,1,1.81,1.17A2.24,2.24,0,0,0,13.83,10Z" id="id_113"></path><path class="cls-7" d="M13.83,20H14a2,2,0,0,1,1.81,1.17A2.24,2.24,0,0,0,13.83,20Z" id="id_114"></path><path class="cls-8" d="M13.83,30H14a2,2,0,0,1,1.81,1.17A2.24,2.24,0,0,0,13.83,30Z" id="id_115"></path><path class="cls-9" d="M14,44h-.17a2.24,2.24,0,0,0,2-1.17A2,2,0,0,1,14,44Z" id="id_116"></path><path class="cls-10" d="M15.81,52.83A2,2,0,0,1,14,54h-.17A2.24,2.24,0,0,0,15.81,52.83Z" id="id_117"></path><path class="cls-11" d="M23,5V59H14a1,1,0,0,1-1-1V56h1.15a4.21,4.21,0,0,0,3.53-2.44,1.92,1.92,0,0,0,.14-.36,4.37,4.37,0,0,0,.12-.52A4,4,0,0,0,14,48H11V46h3.15a4.21,4.21,0,0,0,3.53-2.44,1.92,1.92,0,0,0,.14-.36,4.37,4.37,0,0,0,.12-.52,1.75,1.75,0,0,0,0-.33,3.88,3.88,0,0,0-1.15-3.17A4,4,0,0,0,14,38H11V36h3a4,4,0,0,0,2.83-1.17,4.05,4.05,0,0,0,.87-1.31c.05-.12.09-.24.13-.37a3.2,3.2,0,0,0,.1-.42c0-.1,0-.2.05-.3a4,4,0,0,0-.14-1.53,1.72,1.72,0,0,0-.07-.21,1.17,1.17,0,0,0-.09-.24A4.21,4.21,0,0,0,14.15,28H11V26h3a4,4,0,0,0,2.83-1.17,4.05,4.05,0,0,0,.87-1.31c.05-.12.09-.24.13-.37A3.43,3.43,0,0,0,18,21.66a1.86,1.86,0,0,0,0-.33,2.07,2.07,0,0,0-.1-.43,1.72,1.72,0,0,0-.07-.21,1.17,1.17,0,0,0-.09-.24A4.21,4.21,0,0,0,14.15,18H11V16h3a4,4,0,0,0,2.83-1.17,4.05,4.05,0,0,0,.87-1.31c.05-.12.09-.24.13-.37A3.43,3.43,0,0,0,18,11.66a1.86,1.86,0,0,0,0-.33,1.36,1.36,0,0,0-.06-.29.57.57,0,0,0,0-.14,1.72,1.72,0,0,0-.07-.21.85.85,0,0,0-.09-.24A4.21,4.21,0,0,0,14.15,8H13V6a1,1,0,0,1,1-1Z" id="id_118"></path><path class="cls-11" d="M23,5V59H14a1,1,0,0,1-1-1V56h1.15a4.21,4.21,0,0,0,3.53-2.44,1.92,1.92,0,0,0,.14-.36,4.37,4.37,0,0,0,.12-.52A4,4,0,0,0,14,48H13V46h1.15a4.21,4.21,0,0,0,3.53-2.44,1.92,1.92,0,0,0,.14-.36,4.37,4.37,0,0,0,.12-.52,1.75,1.75,0,0,0,0-.33,3.88,3.88,0,0,0-1.15-3.17A4,4,0,0,0,14,38H13V36h1a4,4,0,0,0,2.83-1.17,4.05,4.05,0,0,0,.87-1.31c.05-.12.09-.24.13-.37a3.2,3.2,0,0,0,.1-.42c0-.1,0-.2.05-.3a4,4,0,0,0-.14-1.53,1.72,1.72,0,0,0-.07-.21,1.17,1.17,0,0,0-.09-.24A4.21,4.21,0,0,0,14.15,28H13V26h1a4,4,0,0,0,2.83-1.17,4.05,4.05,0,0,0,.87-1.31c.05-.12.09-.24.13-.37A3.43,3.43,0,0,0,18,21.66a1.86,1.86,0,0,0,0-.33,2.07,2.07,0,0,0-.1-.43,1.72,1.72,0,0,0-.07-.21,1.17,1.17,0,0,0-.09-.24A4.21,4.21,0,0,0,14.15,18H13V16h1a4,4,0,0,0,2.83-1.17,4.05,4.05,0,0,0,.87-1.31c.05-.12.09-.24.13-.37A3.43,3.43,0,0,0,18,11.66a1.86,1.86,0,0,0,0-.33,1.36,1.36,0,0,0-.06-.29.57.57,0,0,0,0-.14,1.72,1.72,0,0,0-.07-.21.85.85,0,0,0-.09-.24A4.21,4.21,0,0,0,14.15,8H13V6a1,1,0,0,1,1-1Z" id="id_119"></path><path class="cls-12" d="M14,28h0Z" id="id_120"></path><path class="cls-13" d="M16,31.88A.49.49,0,0,1,16,32h0a1.58,1.58,0,0,1,0,.38,1.29,1.29,0,0,1-.08.28l-.06.15a1.56,1.56,0,0,1-.16.28h0A2,2,0,0,1,14,34H10c-2.56,0-2.59-4,0-4h4a2,2,0,0,1,1.81,1.17,1.33,1.33,0,0,1,.1.24,1.42,1.42,0,0,1,.05.22.59.59,0,0,1,0,.14A.37.37,0,0,1,16,31.88Z" id="id_121"></path><path class="cls-14" d="M17.68,30.45A4.21,4.21,0,0,0,14.15,28,4,4,0,0,1,17.68,30.45Z" id="id_122"></path><path class="cls-13" d="M16,32h0a1.58,1.58,0,0,1,0,.38,1.29,1.29,0,0,1-.08.28l-.06.15a1.56,1.56,0,0,1-.16.28h0A2,2,0,0,1,14,34H10c-2.56,0-2.59-4,0-4h4a2,2,0,0,1,1.81,1.17,1.33,1.33,0,0,1,.1.24,1.42,1.42,0,0,1,.05.22.59.59,0,0,1,0,.14.37.37,0,0,1,0,.11A.49.49,0,0,1,16,32Z" id="id_123"></path><path class="cls-15" d="M14,18h0Z" id="id_124"></path><path class="cls-16" d="M16,21.77A.86.86,0,0,1,16,22h0a1.58,1.58,0,0,1,0,.38,1.29,1.29,0,0,1-.08.28s0,.09-.05.13v0a1.56,1.56,0,0,1-.16.28h0A2,2,0,0,1,14,24H10c-2.56,0-2.59-4,0-4h4a2,2,0,0,1,1.81,1.17,1.33,1.33,0,0,1,.1.24,1.42,1.42,0,0,1,.05.22A.59.59,0,0,1,16,21.77Z" id="id_125"></path><path class="cls-17" d="M17.68,20.45A4.21,4.21,0,0,0,14.15,18,4,4,0,0,1,17.68,20.45Z" id="id_126"></path><path class="cls-16" d="M16,22h0a1.58,1.58,0,0,1,0,.38,1.29,1.29,0,0,1-.08.28s0,.09-.05.13v0a1.56,1.56,0,0,1-.16.28h0A2,2,0,0,1,14,24H10c-2.56,0-2.59-4,0-4h4a2,2,0,0,1,1.81,1.17,1.33,1.33,0,0,1,.1.24,1.42,1.42,0,0,1,.05.22.59.59,0,0,1,0,.14A.86.86,0,0,1,16,22Z" id="id_127"></path><path class="cls-18" d="M14,8h0Z" id="id_128"></path><path class="cls-19" d="M16,12h0a1.58,1.58,0,0,1,0,.38,2,2,0,0,1-.14.43,1.56,1.56,0,0,1-.16.28h0A2,2,0,0,1,14,14H10c-2.56,0-2.59-4,0-4h4a2,2,0,0,1,1.81,1.17,1.33,1.33,0,0,1,.1.24A1.87,1.87,0,0,1,16,12Z" id="id_129"></path><path class="cls-20" d="M17.68,10.45A4.21,4.21,0,0,0,14.15,8,4,4,0,0,1,17.68,10.45Z" id="id_130"></path><path class="cls-19" d="M16,12h0a1.58,1.58,0,0,1,0,.38,2,2,0,0,1-.14.43,1.56,1.56,0,0,1-.16.28h0A2,2,0,0,1,14,14H10c-2.56,0-2.59-4,0-4h4a2,2,0,0,1,1.81,1.17,1.33,1.33,0,0,1,.1.24A1.87,1.87,0,0,1,16,12Z" id="id_131"></path><path class="cls-21" d="M13.83,46h0Z" id="id_132"></path><path class="cls-22" d="M10,44c-2.59,0-2.57-4,0-4h4a2,2,0,0,1,1.41.59,2.48,2.48,0,0,1,.25.3h0a1.56,1.56,0,0,1,.16.28l.06.15a1.29,1.29,0,0,1,.08.28A1.58,1.58,0,0,1,16,42h0a.76.76,0,0,1,0,.15.19.19,0,0,1,0,.08,1.35,1.35,0,0,1-.07.36,1.33,1.33,0,0,1-.1.24A2,2,0,0,1,14,44Z" id="id_133"></path><path class="cls-23" d="M17.68,43.55A4,4,0,0,1,14.15,46,4.21,4.21,0,0,0,17.68,43.55Z" id="id_134"></path><path class="cls-22" d="M16,42h0a.76.76,0,0,1,0,.15.19.19,0,0,1,0,.08,1.35,1.35,0,0,1-.07.36,1.33,1.33,0,0,1-.1.24A2,2,0,0,1,14,44H10c-2.59,0-2.57-4,0-4h4a2,2,0,0,1,1.41.59,2.48,2.48,0,0,1,.25.3h0a1.56,1.56,0,0,1,.16.28l.06.15a1.29,1.29,0,0,1,.08.28A1.58,1.58,0,0,1,16,42Z" id="id_135"></path><path class="cls-24" d="M14.15,56h0Z" id="id_136"></path><path class="cls-25" d="M16,52h0a.76.76,0,0,1,0,.15.19.19,0,0,1,0,.08,1.35,1.35,0,0,1-.07.36,1.33,1.33,0,0,1-.1.24A2,2,0,0,1,14,54H10c-2.59,0-2.57-4,0-4h4a2,2,0,0,1,1.41.59,2.48,2.48,0,0,1,.25.3h0a1.56,1.56,0,0,1,.16.28l.06.15a1.29,1.29,0,0,1,.08.28A1.58,1.58,0,0,1,16,52Z" id="id_137"></path><path class="cls-26" d="M17.68,53.55A4,4,0,0,1,14.15,56,4.21,4.21,0,0,0,17.68,53.55Z" id="id_138"></path><path class="cls-25" d="M16,52h0a.76.76,0,0,1,0,.15.19.19,0,0,1,0,.08,1.35,1.35,0,0,1-.07.36,1.33,1.33,0,0,1-.1.24A2,2,0,0,1,14,54H10c-2.59,0-2.57-4,0-4h4a2,2,0,0,1,1.41.59,2.48,2.48,0,0,1,.25.3h0a1.56,1.56,0,0,1,.16.28l.06.15a1.29,1.29,0,0,1,.08.28A1.58,1.58,0,0,1,16,52Z" id="id_139"></path></svg>